<?xml version="1.0" encoding="UTF-8"?>
<svg id="Calque_2" data-name="Calque 2" xmlns="http://www.w3.org/2000/svg" viewBox="0 0 683.8 641.16">
  <defs>
    <style>
      .cls-1 {
        letter-spacing: -.05em;
      }

      .cls-2 {
        stroke-width: 0px;
      }

      .cls-2, .cls-3 {
        fill: #181ad6;
      }

      .cls-4 {
        letter-spacing: -.04em;
      }

      .cls-3 {
        font-family: Corbel-Bold, Corbel;
        font-size: 76.69px;
        font-weight: 700;
      }
    </style>
  </defs>
  <g id="Calque_1-2" data-name="Calque 1">
    <text class="cls-3" transform="translate(0 622.74)"><tspan x="0" y="0">When</tspan><tspan class="cls-4" x="194.57" y="0"> </tspan><tspan x="207" y="0">And</tspan><tspan class="cls-1" x="342.7" y="0"> </tspan><tspan x="354.38" y="0">Where</tspan></text>
    <path class="cls-2" d="M37.08,300.74c14.48-18.04,27.19-37.64,47.27-50.63,23.26-15.05,44.42-8.97,56.94,13.63,9.64,17.39,16.9,36.09,25.55,54.05,3.56,7.39,7.07,15.09,12.19,21.36,6.98,8.55,15.34,8.14,22.94.18,10.69-11.2,16.85-25.14,22.08-39.33,11.7-31.76,22.37-63.9,34.33-95.56,4.3-11.38,9.76-22.82,17.04-32.46,13.93-18.45,37.86-17.72,50.5,1.73,10.4,16,18.52,33.51,27.33,50.51,7.43,14.34,14.16,29.06,21.73,43.32,2.61,4.91,6.35,9.5,10.46,13.28,8.13,7.47,21.92,9.34,27.75-4.26,5.75-13.39,10.25-27.62,13.02-41.92,5.76-29.72,9.96-59.75,14.88-89.64,10.11-61.38,45.77-102.38,101.68-127.14C577.26,2.59,613.57-1.52,650.81.47c10.97.59,21.9,1.78,32.85,2.69.04.62.09,1.24.13,1.87-5.15.98-10.33,1.79-15.43,2.95-32.34,7.35-63.19,18.31-90.22,38.19-29.52,21.72-47.21,51.13-55.21,86.55-5.86,25.96-8.09,52.39-8.6,78.96-.91,47.34-1.38,94.69-2.6,142.02-2.84,38.27-3.28,78.15-14.63,115.91-2.87,9.55-7.2,18.81-11.92,27.63-14.28,26.74-45.77,27.86-65.35,16.66-16.68-9.54-28.8-24.3-36.88-41.13-13.43-27.95-24.9-56.85-37-85.43-8.72-20.6-16.85-41.45-25.81-61.94-2.46-5.61-6.55-10.72-10.7-15.33-5.12-5.7-10.39-6.67-16.06-1.66-6.85,6.04-13.63,12.94-18.03,20.82-10.92,19.53-20.31,39.9-30.61,59.79-9.2,17.75-19.73,34.51-37.53,45.2-17.25,10.36-37.63,8.87-48.15-4.43-5.21-6.59-10.31-13.85-13.11-21.65-7.2-20.06-12.8-40.69-19.61-60.9-5.07-15.04-9.93-30.32-16.91-44.49-8.1-16.45-20.92-19.84-37.94-15.33-10.15,2.69-19.5,8.39-29.2,12.75-1.37.61-2.68,1.35-4.01,2.03l-1.19-1.45Z"/>
    <g>
      <path class="cls-2" d="M251.58,413.29h18.17c.4,1.88.64,3.76,1.2,5.53,3.17,10.08,9.93,16.39,20.31,18.33,3.43.64,3.59,2.15,2.76,5.1-8.09-.27-14.99-3.3-20.16-9.23-3.08-3.54-5.23-8-7.24-12.31-.95-2.05-1.85-3.2-4.05-3.73-3.74-.9-7.4-2.15-11.09-3.26.03-.15.07-.29.1-.44Z"/>
      <path class="cls-2" d="M297.13,437.86c15.05-2.97,21.79-9.74,24.45-24.47h4.48c-.33,8.68-3.81,15.8-10.2,21.16-3.43,2.88-7.92,4.48-11.84,6.82-1.18.71-2.49,1.8-2.93,3.01-1.39,3.83-2.4,7.81-3.97,11.64v-18.16Z"/>
      <path class="cls-2" d="M269.82,410.49h-4.67c.43-2.53.58-4.86,1.25-7.03,3.18-10.24,9.82-17.28,20.09-20.52,2.48-.78,3.66-1.97,4.24-4.42.85-3.65,2.05-7.21,3.57-10.7v18.1c-13.85,2.22-22.33,10.02-24.48,24.58Z"/>
      <path class="cls-2" d="M339.36,410.57h-17.77c-.91-6.29-2.99-12.07-7.62-16.7-4.64-4.65-10.32-6.95-16.83-7.77v-4.74c2.4.42,4.7.59,6.86,1.24,10.69,3.2,17.7,10.23,20.98,20.85.58,1.87,1.36,2.75,3.24,3.22,3.77.93,7.46,2.16,11.19,3.26-.02.22-.04.43-.06.65Z"/>
      <path class="cls-2" d="M295.68,393.13c10.82.15,19,8.47,18.78,19.11-.21,10.22-8.79,18.47-19.04,18.29-10.45-.18-18.64-8.72-18.43-19.22.2-10.16,8.59-18.32,18.69-18.18ZM295.7,429.21c9.4.03,17.45-7.95,17.46-17.34.01-9.53-7.93-17.47-17.62-17.6-8.96-.12-17.19,8.09-17.28,17.23-.1,9.65,7.8,17.67,17.43,17.7Z"/>
      <path class="cls-2" d="M299.05,411.35c-.07,2.48-1.1,3.72-3.27,3.76-2.14.04-3.35-1.11-3.4-3.24-.04-2.12,1.09-3.33,3.25-3.4,2.2-.07,3.21,1.17,3.42,2.89Z"/>
    </g>
  </g>
</svg>